<?xml version="1.0" encoding="utf-8"?>
<!-- Generator: Adobe Illustrator 25.2.1, SVG Export Plug-In . SVG Version: 6.00 Build 0)  -->
<svg version="1.1" id="Laag_1" xmlns="http://www.w3.org/2000/svg" xmlns:xlink="http://www.w3.org/1999/xlink" x="0px" y="0px"
	 viewBox="0 0 24 24" style="enable-background:new 0 0 24 24;" xml:space="preserve">
<style type="text/css">
	.st0{fill-rule:evenodd;clip-rule:evenodd;}
</style>
<g>
	<path class="st0" d="M17.7,1c-2.2,0-4.4,1-5.7,3.2C10.7,2,8.5,1,6.3,1C3.1,1,0,3.2,0,7.2c0,4.7,5.6,9.4,12,15.8
		c6.4-6.4,12-11.2,12-15.8C24,3.2,20.9,1,17.7,1z M12,21.6C6.4,16,1,11.3,1,7.2C1,3.4,4.1,2,6.3,2c1.3,0,4.1,0.5,5.7,4.5
		c1.6-4,4.5-4.5,5.7-4.5C20.3,2,23,3.6,23,7.2C23,11.3,17.9,15.8,12,21.6z"/>
	<path d="M17.7,1c-2.2,0-4.4,1-5.7,3.2C10.7,2,8.5,1,6.3,1C3.1,1,0,3.2,0,7.2c0,4.7,5.6,9.4,12,15.8c6.4-6.4,12-11.2,12-15.8
		C24,3.2,20.9,1,17.7,1z M13,19.2c-0.3,0.3-0.7,0.7-1,1c-0.3-0.3-0.7-0.7-1-1c-4.6-4.5-9-8.7-9-12C2,3.9,4.8,3,6.3,3
		c1.2,0,3.5,0.5,4.8,3.8L12,9.2l0.9-2.3C14.3,3.5,16.5,3,17.7,3C19.3,3,22,3.9,22,7.2C22,10.4,17.8,14.5,13,19.2z"/>
</g>
</svg>
