<svg xmlns="http://www.w3.org/2000/svg" viewBox="0 0 588.38 151.29"><defs><style>.cls-1{fill:#1f87fc;}.cls-2{fill:#ff2f24;}.cls-3{fill:#ffb900;}.cls-4{fill:#00ab47;}</style></defs><g id="Laag_2" data-name="Laag 2"><g id="Laag_1-2" data-name="Laag 1"><path class="cls-1" d="M133.69,124.8a72,72,0,0,1-25.28,19.72,76.37,76.37,0,0,1-32.56,6.77,76.27,76.27,0,0,1-30-5.86A73.39,73.39,0,0,1,5.87,105.48,75.56,75.56,0,0,1,0,75.65,75.61,75.61,0,0,1,5.87,45.81,73.33,73.33,0,0,1,45.81,5.87,76.28,76.28,0,0,1,75.85,0q17.39,0,30.64,6.07a71.22,71.22,0,0,1,23.56,17.59L110.84,42.27A51.58,51.58,0,0,0,96,30.34q-8.39-4.45-19.92-4.45a51,51,0,0,0-19,3.54,46.05,46.05,0,0,0-15.48,10A47.26,47.26,0,0,0,31.15,55.12a52.64,52.64,0,0,0-3.84,20.53,52.67,52.67,0,0,0,3.84,20.53,47.21,47.21,0,0,0,10.41,15.67,45.9,45.9,0,0,0,15.48,10,51,51,0,0,0,19,3.54,45.56,45.56,0,0,0,21.54-5,53.11,53.11,0,0,0,16.69-14.06Z"/><path class="cls-2" d="M150.28,3.24h26.5V43.89l-1.62,18h1.62A32.82,32.82,0,0,1,189,50.26a35.56,35.56,0,0,1,17.9-4.55q19.22,0,28.42,11.33T244.53,88v60.08H218V91.22q0-10.32-4.86-15.68t-13.55-5.35a19.89,19.89,0,0,0-9.71,2.32,21.74,21.74,0,0,0-7.18,6.37,29.77,29.77,0,0,0-4.45,9.41,41.79,41.79,0,0,0-1.51,11.42v48.35h-26.5Z"/><path class="cls-3" d="M334.94,135.11h-1.62a33.56,33.56,0,0,1-12.54,11.83,36.63,36.63,0,0,1-18,4.35q-18.81,0-28-11.53T265.57,109V49h26.49v56.83q0,10.73,4.76,15.88t13.85,5.16a19.34,19.34,0,0,0,9.61-2.33,22.52,22.52,0,0,0,7.08-6.27,28.47,28.47,0,0,0,4.45-9.3,41.87,41.87,0,0,0,1.51-11.43V49h26.5v99.11H334.94Z"/><path class="cls-1" d="M475.51,122.77a55.25,55.25,0,0,1-18.1,20.53q-11.62,8-29,8a55.11,55.11,0,0,1-21.14-3.94,49.18,49.18,0,0,1-16.59-11,51.14,51.14,0,0,1-10.92-16.68A55.15,55.15,0,0,1,375.8,98.5a55.92,55.92,0,0,1,3.94-21.24,49,49,0,0,1,27.51-27.6,55.12,55.12,0,0,1,21.14-3.95q17.19,0,28.92,7.89A46.72,46.72,0,0,1,474.5,74L450.23,84.14a26.12,26.12,0,0,0-8.8-10.42Q436.08,70.2,428,70.19a24.53,24.53,0,0,0-9.91,2,25.48,25.48,0,0,0-8.19,5.66,25.89,25.89,0,0,0-5.56,8.9,34.9,34.9,0,0,0,0,23.46,25.79,25.79,0,0,0,5.56,8.9,25.51,25.51,0,0,0,8.19,5.67,24.53,24.53,0,0,0,9.91,2A25.31,25.31,0,0,0,442,123.08a26.13,26.13,0,0,0,9.2-10.82Z"/><path class="cls-4" d="M491.69,3.24h26.5V82.12h1.21L552.57,49h32.77v1.62l-36.81,35.8,39.85,60.07v1.62H557l-27.1-43.49L518.19,116.1v32h-26.5Z"/></g></g></svg>